<?xml version="1.0" standalone="no"?>
<!DOCTYPE svg PUBLIC "-//W3C//DTD SVG 20010904//EN"
 "http://www.w3.org/TR/2001/REC-SVG-20010904/DTD/svg10.dtd">
<svg version="1.0" xmlns="http://www.w3.org/2000/svg"
 width="1184.000000pt" height="1184.000000pt" viewBox="0 0 1184.000000 1184.000000"
 preserveAspectRatio="xMidYMid meet">

<g transform="translate(0.000000,1184.000000) scale(0.100000,-0.100000)"
fill="#000000" stroke="none">
<path d="M5640 10243 c-19 -1 -87 -8 -150 -14 -333 -31 -713 -120 -1034 -240
-144 -54 -360 -149 -364 -160 -2 -5 -11 -9 -19 -9 -20 0 -268 -134 -403 -218
-773 -480 -1369 -1181 -1720 -2022 -115 -275 -225 -659 -274 -962 -45 -278
-51 -369 -51 -818 l0 -425 27 -46 c40 -67 117 -133 217 -182 48 -24 94 -46
102 -49 10 -4 5 -15 -22 -44 -132 -141 -185 -262 -169 -385 8 -68 121 -343
259 -634 322 -675 813 -1258 1426 -1692 337 -239 754 -448 1150 -577 701 -227
1463 -271 2184 -126 1425 288 2620 1290 3154 2645 178 453 269 878 312 1465
21 283 20 347 -6 417 -28 74 -136 184 -229 232 -36 19 -70 38 -75 42 -7 5 20
40 71 92 110 114 149 191 148 296 0 68 -8 97 -73 281 -161 454 -300 762 -475
1052 -375 619 -918 1151 -1541 1509 -669 384 -1425 583 -2195 577 -118 -1
-231 -3 -250 -5z m495 -133 c785 -49 1503 -289 2130 -712 701 -473 1232 -1133
1558 -1933 101 -248 217 -589 217 -638 0 -67 -40 -135 -133 -224 -536 -514
-2467 -1109 -4507 -1387 -1242 -170 -2330 -199 -3015 -81 -341 59 -558 153
-617 268 -20 40 -20 49 -15 432 7 507 30 712 123 1089 116 468 300 891 570
1306 235 363 568 723 929 1007 181 142 492 339 687 434 54 26 67 37 62 51 -5
16 1 18 41 18 26 0 63 9 84 20 71 36 285 117 416 158 436 135 752 186 1255
200 30 1 127 -3 215 -8z m3782 -3805 c225 -110 285 -250 177 -416 -444 -680
-3031 -1460 -5454 -1644 -501 -38 -1125 -44 -1485 -15 -454 37 -787 107 -1000
210 -289 140 -320 304 -101 527 l81 82 55 -14 c126 -32 501 -85 612 -85 35 0
37 -2 53 -50 13 -39 21 -50 33 -46 10 3 43 -12 77 -35 326 -216 1243 -267
2420 -133 1238 141 2498 458 3210 810 231 113 339 186 457 306 54 54 105 98
113 98 12 0 15 14 15 63 l0 63 68 28 c114 49 352 171 457 235 55 33 104 60
110 61 5 0 51 -20 102 -45z m-936 -394 c-54 -75 -241 -198 -466 -307 -860
-415 -2468 -767 -3855 -845 -267 -15 -869 -6 -1040 15 -239 30 -404 70 -517
123 l-58 28 430 6 c423 7 610 15 975 45 1032 84 2216 285 3205 545 427 112
954 277 1210 378 55 21 108 40 118 40 17 1 17 -1 -2 -28z m1134 -356 c-32
-321 -75 -554 -151 -820 -287 -1018 -960 -1903 -1859 -2445 -901 -544 -1987
-727 -3020 -509 -1111 234 -2102 932 -2698 1900 -124 201 -340 629 -325 644 3
3 39 -10 80 -30 182 -84 494 -150 908 -192 144 -15 270 -18 710 -18 543 0 683
6 1125 46 1960 177 4018 730 4920 1323 113 74 241 173 284 220 14 14 28 23 32
19 4 -5 1 -66 -6 -138z"/>
</g>
</svg>
